:version 1.10
:name ASF
:units
  mass 1
  length 1
  angle deg
:documentation
  ASF file generated by Kaydara
:root
  axis xyz
  order  tx ty tz rx ry rz
  position 0 0 0
  orientation 0 0 0
:bonedata
  begin
    id 1
    name SpineDummy
    direction 0.999998 -0.00179978 1.38929e-006
    length 3.60008
    axis 0 0 0 xyz
  end
  begin
    id 2
    name Spine
    direction 0.964365 0.262802 0.0305839
    length 8.13928
    axis 1.33928 -1.75354 15.2838 xyz
    dof rx ry rz
  end
  begin
    id 3
    name Spine1
    direction 0.811168 0.572065 0.12144
    length 7.14954
    axis 2.2224 -6.9761 35.2157 xyz
    dof rx ry rz
  end
  begin
    id 4
    name Neck
    direction 0 0 0
    length 0
    axis 2.2224 -6.9761 35.2157 xyz
    dof rx ry rz
  end
  begin
    id 5
    name HeadDummy
    direction 0.810939 0.572387 0.121455
    length 3.55534
    axis 2.2224 -6.9761 35.2157 xyz
  end
  begin
    id 6
    name Head
    direction 0.998226 -0.000232542 0.0595419
    length 7.35666
    axis -3.03688 -3.41352 -0.0133467 xyz
    dof rx ry rz
  end
  begin
    id 7
    name R_ClavicleDummy
    direction 0.531669 -0.194489 -0.824319
    length 2.49392
    axis 2.2224 -6.9761 35.2157 xyz
  end
  begin
    id 8
    name R_Clavicle
    direction -0.155119 0.0480802 -0.986725
    length 4.485
    axis -54.2764 80.6538 162.779 xyz
    dof rx ry rz
  end
  begin
    id 9
    name R_UpperArm
    direction -0.955567 0.200068 -0.216484
    length 10.1122
    axis -72.9943 12.5026 168.175 xyz
    dof rx ry rz
  end
  begin
    id 10
    name R_Forearm
    direction -0.61433 0.385743 0.688332
    length 9.39148
    axis -117.015 -43.4982 147.875 xyz
    dof rx ry rz
  end
  begin
    id 11
    name R_Hand
    direction -0.699429 0.0170333 0.714499
    length 3.66324
    axis -45.0303 -36.7097 175.478 xyz
    dof rx ry rz
  end
  begin
    id 12
    name L_ClavicleDummy
    direction 0.40287 -0.36502 0.839319
    length 2.49392
    axis 2.2224 -6.9761 35.2157 xyz
  end
  begin
    id 13
    name L_Clavicle
    direction -0.231271 -0.0726419 0.970174
    length 4.485
    axis 18.4357 -75.9711 -162.563 xyz
    dof rx ry rz
  end
  begin
    id 14
    name L_UpperArm
    direction -0.917494 0.144359 0.370629
    length 10.1122
    axis 56.0417 -21.7544 171.058 xyz
    dof rx ry rz
  end
  begin
    id 15
    name L_Forearm
    direction -0.496786 0.615074 -0.612281
    length 9.39148
    axis 89.8094 37.7546 128.927 xyz
    dof rx ry rz
  end
  begin
    id 16
    name L_Hand
    direction -0.409932 0.64962 -0.640274
    length 3.66324
    axis -0.424369 32.133 128.52 xyz
    dof rx ry rz
  end
  begin
    id 17
    name L_ThighDummy
    direction -1.84081e-006 1.87549e-006 1
    length 3.13049
    axis 0 0 0 xyz
  end
  begin
    id 18
    name L_Thigh
    direction -0.947739 0.307978 0.083308
    length 17.9961
    axis 173.219 -4.77873 161.998 xyz
    dof rx ry rz
  end
  begin
    id 19
    name L_Calf
    direction -0.728814 -0.684427 0.0197583
    length 13.3367
    axis 167.331 -1.13214 -136.799 xyz
    dof rx ry rz
  end
  begin
    id 20
    name L_Foot
    direction -0.9028 0.418719 0.0981191
    length 5.8674
    axis 163.436 11.5135 -155.37 xyz
    dof rx ry rz
  end
  begin
    id 21
    name L_Toe0
    direction -0.35341 0.886259 0.299411
    length 4.75286
    axis 169.316 -17.4222 111.74 xyz
    dof rx ry rz
  end
  begin
    id 22
    name R_ThighDummy
    direction 9.32778e-007 -8.82053e-007 -1
    length 3.13049
    axis 0 0 0 xyz
  end
  begin
    id 23
    name R_Thigh
    direction -0.925064 0.37528 -0.0585023
    length 17.9961
    axis -178.698 3.35385 157.919 xyz
    dof rx ry rz
  end
  begin
    id 24
    name R_Calf
    direction -0.68969 -0.718776 -0.0876886
    length 13.3367
    axis -160.504 5.03065 -133.817 xyz
    dof rx ry rz
  end
  begin
    id 25
    name R_Foot
    direction -0.857405 0.418858 -0.299022
    length 5.8674
    axis -161.328 4.38911 -154.413 xyz
    dof rx ry rz
  end
  begin
    id 26
    name R_Toe0
    direction -0.100745 0.952789 -0.286433
    length 4.75286
    axis 171.683 16.6445 96.0359 xyz
    dof rx ry rz
  end
:hierarchy
  begin
    root SpineDummy L_ThighDummy R_ThighDummy
    SpineDummy Spine
    Spine Spine1
    Spine1 Neck
    Neck HeadDummy R_ClavicleDummy L_ClavicleDummy
    HeadDummy Head
    R_ClavicleDummy R_Clavicle
    R_Clavicle R_UpperArm
    R_UpperArm R_Forearm
    R_Forearm R_Hand
    L_ClavicleDummy L_Clavicle
    L_Clavicle L_UpperArm
    L_UpperArm L_Forearm
    L_Forearm L_Hand
    L_ThighDummy L_Thigh
    L_Thigh L_Calf
    L_Calf L_Foot
    L_Foot L_Toe0
    R_ThighDummy R_Thigh
    R_Thigh R_Calf
    R_Calf R_Foot
    R_Foot R_Toe0
  end

:SAMPLES-PER-SECOND 30
:FULLY-SPECIFIED
:DEGREES
303
root  -4.24675 31.2652 -53.2958 -84.2253 -8.57256 79.8433
Spine  -1.18615 -7.10731 -10.9115
Spine1  -0.699962 5.40211 10.5006
Neck  3.97569e-016 0 -2.38542e-015
Head  1.78532 -4.64747 11.4565
R_Clavicle  0.394773 -20.7844 0.0713189
R_UpperArm  32.5142 -8.59471 33.3884
R_Forearm  -13.7495 -47.7288 28.0577
R_Hand  0.480319 7.17913 -6.72269
L_Clavicle  -0.534913 17.6356 -2.28821
L_UpperArm  3.93417 -1.99717 3.15696
L_Forearm  -11.3541 20.8889 26.1482
L_Hand  -0.097237 -0.69414 -2.31672
L_Thigh  -9.14889 -7.73551 -7.74151
L_Calf  9.33277 -1.8425 14.5483
L_Foot  7.20665 14.1964 11.2355
L_Toe0  0.505156 0.034446 -6.1361
R_Thigh  7.4016 -7.71399 -1.68181
R_Calf  -0.0657552 -3.75623 -11.818
R_Foot  0.982363 1.53366 -5.42438
R_Toe0  1.91082 -0.355372 -12.8805
304
root  -4.32083 31.6973 -54.2605 -86.9289 -8.2944 80.1431
Spine  -2.3867 -8.41889 -12.1565
Spine1  -1.72482 7.5072 8.4157
Neck  3.97569e-016 0 -2.38542e-015
Head  6.67391 -5.28356 13.8307
R_Clavicle  0.391338 -20.6461 0.0224633
R_UpperArm  33.1867 -9.99129 34.5938
R_Forearm  -15.2028 -47.7578 28.9822
R_Hand  0.922002 7.68176 -3.80895
L_Clavicle  -0.484663 16.6214 -2.43989
L_UpperArm  4.54522 -2.12736 4.64893
L_Forearm  -10.0903 20.3918 25.4196
L_Hand  -0.0712026 -0.15602 -1.51304
L_Thigh  -12.0229 -6.8073 -11.1974
L_Calf  9.91458 -2.44424 18.8046
L_Foot  7.08256 14.214 10.857
L_Toe0  0.505156 0.034446 -6.1361
R_Thigh  9.44172 -7.40949 0.672757
R_Calf  -1.27137 -0.824051 -2.65738
R_Foot  0.957235 1.37072 -5.55839
R_Toe0  -2.5174 0.205461 -7.6541
305
root  -4.35571 32.0595 -55.2103 -89.485 -7.99942 80.4452
Spine  -3.71951 -9.88976 -13.4591
Spine1  -2.86462 9.96466 6.74726
Neck  3.97569e-016 0 -2.38542e-015
Head  11.5653 -5.65247 15.8265
R_Clavicle  0.39513 -20.7511 0.143531
R_UpperArm  33.2509 -10.4618 35.9654
R_Forearm  -15.5681 -47.5574 29.0808
R_Hand  1.05554 7.4731 -2.50612
L_Clavicle  -0.446365 15.8794 -2.578
L_UpperArm  5.70419 -2.63857 6.80117
L_Forearm  -10.2709 19.8829 24.6827
L_Hand  -0.0852667 -0.13937 -1.78778
L_Thigh  -13.2105 -6.26516 -14.6437
L_Calf  9.55704 -3.57851 23.1357
L_Foot  6.81984 13.9903 10.3037
L_Toe0  0.505156 0.034446 -6.1361
R_Thigh  13.4383 -6.98974 1.29726
R_Calf  -3.10253 3.05247 9.36927
R_Foot  0.820687 1.04962 -5.02158
R_Toe0  -6.85366 0.773458 -9.34717
306
root  -4.33651 32.3221 -56.1372 -92.0682 -7.94049 80.9377
Spine  -4.94991 -11.3702 -14.5031
Spine1  -3.86326 12.7984 5.59187
Neck  3.97569e-016 0 -2.38542e-015
Head  16.4234 -5.76256 17.3808
R_Clavicle  0.40047 -20.8569 0.409585
R_UpperArm  33.1366 -10.5936 37.5244
R_Forearm  -13.4222 -46.6444 28.1419
R_Hand  0.979146 7.07693 -2.60362
L_Clavicle  -0.413444 15.2653 -2.67934
L_UpperArm  6.86042 -3.22008 9.27992
L_Forearm  -10.6535 19.3798 23.9626
L_Hand  -0.10711 -0.2645 -2.30879
L_Thigh  -11.0418 -5.97488 -18.0209
L_Calf  6.18224 -5.7846 27.007
L_Foot  6.43639 13.2822 9.85478
L_Toe0  0.505156 0.034446 -6.1361
R_Thigh  19.8805 -5.93149 0.611891
R_Calf  -4.7701 7.03639 22.8321
R_Foot  0.345012 -0.968682 -5.06023
R_Toe0  -3.70809 -0.202038 -15.9606
307
root  -4.25569 32.3604 -57.0382 -95.0146 -8.04084 81.111
Spine  -5.80236 -13.2697 -15.1818
Spine1  -4.58427 15.6764 4.60657
Neck  3.97569e-016 0 -2.38542e-015
Head  21.2022 -5.76508 18.4351
R_Clavicle  0.402394 -20.6356 0.784201
R_UpperArm  32.2072 -10.9312 39.2419
R_Forearm  -8.59937 -44.5072 25.7683
R_Hand  0.80779 6.66968 -3.47925
L_Clavicle  -0.391271 14.8655 -2.7502
L_UpperArm  7.87158 -3.90957 11.9081
L_Forearm  -11.0163 19.009 23.4365
L_Hand  -0.123375 -0.101215 -2.56604
L_Thigh  -9.66094 -5.92612 -20.7981
L_Calf  2.51176 -7.562 29.1523
L_Foot  6.30938 12.339 10.4135
L_Toe0  0.505156 0.034446 -6.1361
R_Thigh  27.0076 -5.32924 1.19734
R_Calf  -4.92074 10.592 31.9376
R_Foot  0.176086 -3.60047 -8.32855
R_Toe0  -1.60368 -0.285229 -17.4872
